<svg xmlns="http://www.w3.org/2000/svg" viewBox="0 0 60 70" width="40" height="47" fill="none" stroke="#2a2018" stroke-width="1.4" stroke-linecap="round" stroke-linejoin="round">
  <path d="M30 30 C28 22, 20 20, 22 13 C24 6, 36 6, 38 13 C40 20, 32 22, 30 30Z"/>
  <path d="M30 30 C38 28, 40 20, 47 22 C54 24, 54 36, 47 38 C40 40, 38 32, 30 30Z"/>
  <path d="M30 30 C32 38, 40 40, 38 47 C36 54, 24 54, 22 47 C20 40, 28 38, 30 30Z"/>
  <path d="M30 30 C22 32, 20 40, 13 38 C6 36, 6 24, 13 22 C20 20, 22 28, 30 30Z"/>
  <path d="M30 54 C29 58, 27 62, 25 66"/>
</svg>
